#!OML:ASF Y:\EmotionMaleHayes\Project 1\Capture day 1\Session 1\Male1.ASF
:FULLY-SPECIFIED
:DEGREES
395
root 46.4136 16.4451 -0.463324 912.933 80.381 922.028
lowerback 12.6534 0.541596 0.353309
upperback 5.65761 1.08127 1.42515
thorax -1.18956 0.653721 1.1337
lowerneck -23.6568 -1.63364 1.87278
upperneck 27.6136 -3.28038 1.57423
head 13.2374 -0.873029 -0.261155
rclavicle -1.41883e-014 1.2424e-014
rhumerus -38.7461 3.84723 -86.5534
rradius 56.4068
rwrist -23.75
rhand -24.5463 -21.8179
rfingers 7.12502
rthumb 1.94976 -51.7888
lclavicle -1.41883e-014 1.2424e-014
lhumerus -47.2749 -31.3771 96.5688
lradius 60.0443
lwrist 31.3767
lhand -31.3845 -35.0755
lfingers 7.12502
lthumb -4.65446 -5.14663
rfemur -9.10519 -2.71301 21.9476
rtibia 19.3884
rfoot -5.0245 -11.0783
rtoes 24.6365
lfemur -14.5968 -1.81648 -12.2347
ltibia 60.3471
lfoot -14.1257 5.84277
ltoes -20.954
396
root 46.4954 16.4765 -0.473233 908.331 80.8755 917.229
lowerback 12.5802 0.747655 -0.220014
upperback 5.79915 1.28281 1.08807
thorax -1.00939 0.750159 1.08237
lowerneck -23.8504 -1.7187 1.98048
upperneck 27.3836 -3.48145 1.64654
head 13.1819 -0.946878 -0.289326
rclavicle 2.73329e-016 4.77083e-015
rhumerus -37.9543 6.46728 -88.2128
rradius 58.9379
rwrist -24.2879
rhand -24.2531 -20.439
rfingers 7.12502
rthumb 2.23295 -50.4071
lclavicle 2.73329e-016 4.77083e-015
lhumerus -49.1272 -30.0176 96.9136
lradius 60.2243
lwrist 30.3191
lhand -31.162 -34.5719
lfingers 7.12502
lthumb -4.43961 -4.63841
rfemur -8.67316 -2.75982 20.8495
rtibia 18.8812
rfoot -4.64537 -10.7709
rtoes 23.0969
lfemur -15.2705 -1.64684 -13.4674
ltibia 59.0926
lfoot -14.6974 7.01491
ltoes -18.9115
397
root 46.5761 16.5108 -0.483207 904.143 81.4145 912.665
lowerback 12.8145 1.0216 -0.602667
upperback 5.53527 1.57447 0.65517
thorax -1.41437 0.889094 0.800715
lowerneck -23.9087 -1.84618 2.34605
upperneck 27.3746 -3.79598 1.59908
head 13.1813 -1.05023 -0.425944
rclavicle -4.37326e-015 2.88238e-015
rhumerus -37.836 9.09691 -89.8446
rradius 61.6286
rwrist -23.7885
rhand -22.3615 -22.4926
rfingers 7.12502
rthumb 4.05965 -52.4337
lclavicle -4.37326e-015 2.88238e-015
lhumerus -51.575 -28.9883 97.3801
lradius 60.6358
lwrist 29.2535
lhand -31.3575 -34.6414
lfingers 7.12502
lthumb -4.62831 -4.71195
rfemur -8.6187 -2.8203 19.9197
rtibia 18.6652
rfoot -4.28631 -10.2979
rtoes 21.7239
lfemur -15.9524 -1.43214 -14.5299
ltibia 57.4319
lfoot -15.1205 7.93869
ltoes -18.4818
398
root 46.659 16.5334 -0.48752 911.434 81.8731 920.027
lowerback 12.693 1.20216 0.56291
upperback 5.82093 1.96685 0.807025
thorax -1.02703 1.10819 0.257568
lowerneck -23.6572 -1.87159 2.41218
upperneck 26.5724 -3.92412 1.86157
head 12.809 -1.09429 -0.35373
rclavicle 2.90723e-015 -1.23246e-014
rhumerus -37.037 12.4154 -91.1379
rradius 64.1763
rwrist -23.7796
rhand -23.284 -19.8727
rfingers 7.12502
rthumb 3.16886 -49.8289
lclavicle 2.90723e-015 -1.23246e-014
lhumerus -53.1719 -27.9577 97.4976
lradius 61.1945
lwrist 28.3245
lhand -31.5896 -35.0224
lfingers 7.12502
lthumb -4.85246 -5.09799
rfemur -8.21035 -2.39373 21.2568
rtibia 18.3056
rfoot -4.0338 -10.1405
rtoes 20.8474
lfemur -16.1796 -0.927233 -13.3177
ltibia 55.4574
lfoot -15.5922 8.13063
ltoes -19.0224
399
root 46.7515 16.5551 -0.49083 918.066 82.1737 926.628
lowerback 12.9873 1.43433 1.55457
upperback 5.58684 2.38777 0.888076
thorax -1.39412 1.32519 -0.28593
lowerneck -22.9257 -2.07411 2.28952
upperneck 26.0435 -4.23493 2.25241
head 12.4649 -1.21041 -0.227679
rclavicle -2.18663e-015 -1.11319e-014
rhumerus -37.1066 15.5797 -92.2886
rradius 66.7203
rwrist -22.7443
rhand -22.9241 -19.0885
rfingers 7.12502
rthumb 3.51641 -49.0392
lclavicle -2.18663e-015 -1.11319e-014
lhumerus -55.7089 -26.924 97.9251
lradius 62.0412
lwrist 27.5933
lhand -31.6218 -35.3267
lfingers 7.12502
lthumb -4.88351 -5.403
rfemur -7.89942 -2.04876 22.3655
rtibia 18.0859
rfoot -4.08701 -9.90781
rtoes 20.1085
lfemur -16.296 -0.608707 -12.3441
ltibia 53.1986
lfoot -15.6341 8.24397
ltoes -21.4539
400
root 46.8441 16.5698 -0.509686 913.013 82.8541 921.299
lowerback 12.6217 1.73111 0.884433
upperback 5.71906 2.68751 0.580653
thorax -1.06996 1.47112 -0.252424
lowerneck -22.561 -2.00134 2.62961
upperneck 25.4023 -4.18282 2.10122
head 12.1274 -1.20271 -0.327148
rclavicle 2.14936e-014 -1.15295e-014
rhumerus -36.8855 17.9723 -92.9363
rradius 69.9363
rwrist -20.7824
rhand -22.4012 -18.4048
rfingers 7.12502
rthumb 4.02133 -48.3466
lclavicle 2.14936e-014 -1.15295e-014
lhumerus -57.3817 -25.9666 98.0842
lradius 62.8014
lwrist 27.4034
lhand -31.6155 -35.6354
lfingers 7.12502
lthumb -4.87743 -5.71153
rfemur -7.93179 -2.53645 21.2717
rtibia 18.3
rfoot -4.09792 -9.05519
rtoes 19.1092
lfemur -16.2655 -0.767535 -13.594
ltibia 50.6681
lfoot -15.2706 8.42906
ltoes -26.8584
401
root 46.9233 16.5876 -0.516231 905.456 83.72 913.475
lowerback 12.6822 2.15259 -0.120171
upperback 5.67552 3.11808 0.214511
thorax -1.17439 1.67221 -0.129806
lowerneck -22.2162 -2.15522 2.58756
upperneck 24.9089 -4.41395 2.29348
head 11.8741 -1.30465 -0.2809
rclavicle 2.83268e-014 1.19271e-015
rhumerus -36.8352 20.2397 -93.4943
rradius 72.9657
rwrist -18.7964
rhand -21.9976 -17.3512
rfingers 7.12502
rthumb 4.41106 -47.2853
lclavicle 2.83268e-014 1.19271e-015
lhumerus -59.1594 -25.0409 98.2025
lradius 63.558
lwrist 27.4444
lhand -31.5319 -35.9335
lfingers 7.12502
lthumb -4.7967 -6.00777
rfemur -8.10019 -2.36497 20.0762
rtibia 18.5259
rfoot -4.07126 -8.75148
rtoes 18.9358
lfemur -16.2706 -0.66408 -14.8808
ltibia 48.2891
lfoot -14.8007 8.29094
ltoes -32.3755
402
root 46.9962 16.6116 -0.516995 906.487 84.4998 914.155
lowerback 12.5295 2.49903 -0.243092
upperback 5.6678 3.55715 0.158394
thorax -1.10345 1.88842 -0.170385
lowerneck -21.9211 -1.98273 2.92961
upperneck 24.3146 -4.2275 2.16657
head 11.5774 -1.23222 -0.349001
rclavicle 2.48481e-015 2.5842e-015
rhumerus -36.5838 22.5369 -93.8339
rradius 75.7714
rwrist -16.8079
rhand -21.3738 -16.3406
rfingers 7.12502
rthumb 5.01345 -46.2612
lclavicle 2.48481e-015 2.5842e-015
lhumerus -60.6009 -24.0017 98.1241
lradius 64.237
lwrist 27.5568
lhand -31.3468 -36.034
lfingers 7.12502
lthumb -4.61801 -6.10436
rfemur -8.38043 -1.9363 20.2284
rtibia 18.7135
rfoot -4.11819 -8.57496
rtoes 17.7658
lfemur -16.4736 -0.365987 -14.8044
ltibia 45.9938
lfoot -14.7004 7.62913
ltoes -32.3087
403
root 47.0786 16.6125 -0.525819 901.415 85.3961 909.062
lowerback 12.5518 2.88318 -0.797038
upperback 5.8039 4.00689 -0.0530719
thorax -0.993437 2.11021 -0.135804
lowerneck -21.9386 -1.8636 3.32699
upperneck 23.9873 -4.12474 1.9126
head 11.4411 -1.19702 -0.49093
rclavicle 5.41688e-015 -7.35503e-015
rhumerus -36.3262 24.6807 -94.0525
rradius 78.5169
rwrist -15.0322
rhand -21.1344 -15.3942
rfingers 7.12502
rthumb 5.24458 -45.3093
lclavicle 5.41688e-015 -7.35503e-015
lhumerus -61.9009 -23.1187 98.0016
lradius 64.8056
lwrist 27.7594
lhand -31.2528 -35.9531
lfingers 7.12502
lthumb -4.52727 -6.02145
rfemur -8.20853 -1.98259 19.6831
rtibia 18.8045
rfoot -3.98525 -7.90089
rtoes 15.1251
lfemur -15.9914 -0.158686 -15.4195
ltibia 43.5118
lfoot -15.426 6.30679
ltoes -24.3315
